<?xml version="1.0" standalone="no"?>
<!DOCTYPE svg PUBLIC "-//W3C//DTD SVG 20010904//EN"
 "http://www.w3.org/TR/2001/REC-SVG-20010904/DTD/svg10.dtd">
<svg version="1.0" xmlns="http://www.w3.org/2000/svg"
 width="420.000000pt" height="420.000000pt" viewBox="0 0 420.000000 420.000000"
 preserveAspectRatio="xMidYMid meet">
<metadata>
Created by potrace 1.14, written by Peter Selinger 2001-2017
</metadata>
<g transform="translate(0.000000,420.000000) scale(0.100000,-0.100000)"
fill="#000000" stroke="none">
<path d="M350 3500 l0 -360 698 -2 697 -3 0 -340 0 -340 -350 -5 -350 -5 0
-1050 0 -1050 357 -3 358 -2 2 697 3 698 340 0 340 0 3 -698 2 -697 358 2 357
3 -3 1040 c-2 572 -3 1046 -2 1052 0 10 -79 13 -347 15 l-348 3 0 340 0 340
697 5 698 5 5 345 c2 190 1 351 -3 358 -7 10 -155 12 -708 10 l-699 -3 -3
-347 -2 -348 -345 0 -345 0 -2 348 -3 347 -702 3 -703 2 0 -360z"/>
</g>
</svg>
